<svg width="196" height="30" viewBox="0 0 196 30" fill="none" xmlns="http://www.w3.org/2000/svg">
<g clip-path="url(#clip0_0_303)">
<path d="M1.584 25V7.12H4.44L14.04 19.768L12.504 20.128V7.12H16.224V25H13.344L3.912 12.256L5.304 11.896V25H1.584ZM25.6365 25.288C24.3405 25.288 23.1565 24.992 22.0845 24.4C21.0285 23.808 20.1805 23 19.5405 21.976C18.9165 20.936 18.6045 19.76 18.6045 18.448C18.6045 17.12 18.9165 15.944 19.5405 14.92C20.1805 13.896 21.0285 13.088 22.0845 12.496C23.1565 11.904 24.3405 11.608 25.6365 11.608C26.9325 11.608 28.1085 11.904 29.1645 12.496C30.2205 13.088 31.0605 13.896 31.6845 14.92C32.3245 15.944 32.6445 17.12 32.6445 18.448C32.6445 19.76 32.3245 20.936 31.6845 21.976C31.0605 23 30.2205 23.808 29.1645 24.4C28.1085 24.992 26.9325 25.288 25.6365 25.288ZM25.6365 22.048C26.2925 22.048 26.8605 21.896 27.3405 21.592C27.8365 21.288 28.2205 20.864 28.4925 20.32C28.7805 19.776 28.9245 19.152 28.9245 18.448C28.9245 17.744 28.7805 17.128 28.4925 16.6C28.2205 16.056 27.8365 15.632 27.3405 15.328C26.8605 15.008 26.2925 14.848 25.6365 14.848C24.9805 14.848 24.4045 15.008 23.9085 15.328C23.4125 15.632 23.0205 16.056 22.7325 16.6C22.4605 17.128 22.3245 17.744 22.3245 18.448C22.3245 19.152 22.4605 19.776 22.7325 20.32C23.0205 20.864 23.4125 21.288 23.9085 21.592C24.4045 21.896 24.9805 22.048 25.6365 22.048ZM40.8429 25.144C39.2589 25.144 38.0269 24.72 37.1469 23.872C36.2829 23.008 35.8509 21.808 35.8509 20.272V15.016H33.6429V11.896H33.7629C34.4349 11.896 34.9469 11.728 35.2989 11.392C35.6669 11.056 35.8509 10.552 35.8509 9.88V8.92H39.4509V11.896H42.5229V15.016H39.4509V20.032C39.4509 20.48 39.5309 20.856 39.6909 21.16C39.8509 21.448 40.0989 21.664 40.4349 21.808C40.7709 21.952 41.1869 22.024 41.6829 22.024C41.7949 22.024 41.9229 22.016 42.0669 22C42.2109 21.984 42.3629 21.968 42.5229 21.952V25C42.2829 25.032 42.0109 25.064 41.7069 25.096C41.4029 25.128 41.1149 25.144 40.8429 25.144ZM44.6325 25V11.896H48.2325V25H44.6325ZM44.6325 10.72V7.12H48.2325V10.72H44.6325ZM52.4509 25V15.016H50.2429V11.896H52.4509V11.704C52.4509 10.664 52.6509 9.784 53.0509 9.064C53.4669 8.344 54.0589 7.792 54.8269 7.408C55.5949 7.024 56.5229 6.832 57.6109 6.832C57.8189 6.832 58.0429 6.848 58.2829 6.88C58.5229 6.896 58.7229 6.92 58.8829 6.952V10.024C58.7229 9.992 58.5789 9.976 58.4509 9.976C58.3389 9.96 58.2189 9.952 58.0909 9.952C57.4189 9.952 56.9069 10.104 56.5549 10.408C56.2189 10.696 56.0509 11.128 56.0509 11.704V11.896H58.8589V15.016H56.0509V25H52.4509ZM60.4763 25V11.896H64.0763V25H60.4763ZM60.4763 10.72V7.12H64.0763V10.72H60.4763ZM73.1426 25.288C71.8306 25.288 70.6466 24.992 69.5906 24.4C68.5506 23.792 67.7186 22.968 67.0946 21.928C66.4866 20.888 66.1826 19.72 66.1826 18.424C66.1826 17.128 66.4866 15.968 67.0946 14.944C67.7026 13.904 68.5346 13.088 69.5906 12.496C70.6466 11.904 71.8306 11.608 73.1426 11.608C74.1186 11.608 75.0226 11.776 75.8546 12.112C76.6866 12.448 77.3986 12.92 77.9906 13.528C78.5826 14.12 79.0066 14.824 79.2626 15.64L76.1426 16.984C75.9186 16.328 75.5346 15.808 74.9906 15.424C74.4626 15.04 73.8466 14.848 73.1426 14.848C72.5186 14.848 71.9586 15 71.4626 15.304C70.9826 15.608 70.5986 16.032 70.3106 16.576C70.0386 17.12 69.9026 17.744 69.9026 18.448C69.9026 19.152 70.0386 19.776 70.3106 20.32C70.5986 20.864 70.9826 21.288 71.4626 21.592C71.9586 21.896 72.5186 22.048 73.1426 22.048C73.8626 22.048 74.4866 21.856 75.0146 21.472C75.5426 21.088 75.9186 20.568 76.1426 19.912L79.2626 21.28C79.0226 22.048 78.6066 22.736 78.0146 23.344C77.4226 23.952 76.7106 24.432 75.8786 24.784C75.0466 25.12 74.1346 25.288 73.1426 25.288ZM85.4385 25.288C84.4945 25.288 83.6785 25.136 82.9905 24.832C82.3025 24.528 81.7745 24.096 81.4065 23.536C81.0385 22.96 80.8545 22.28 80.8545 21.496C80.8545 20.76 81.0225 20.112 81.3585 19.552C81.6945 18.976 82.2065 18.496 82.8945 18.112C83.5985 17.728 84.4705 17.456 85.5105 17.296L89.5185 16.648V19.288L86.1585 19.888C85.6465 19.984 85.2545 20.152 84.9825 20.392C84.7105 20.616 84.5745 20.944 84.5745 21.376C84.5745 21.776 84.7265 22.088 85.0305 22.312C85.3345 22.536 85.7105 22.648 86.1585 22.648C86.7505 22.648 87.2705 22.52 87.7185 22.264C88.1665 22.008 88.5105 21.664 88.7505 21.232C89.0065 20.784 89.1345 20.296 89.1345 19.768V16.36C89.1345 15.864 88.9345 15.448 88.5345 15.112C88.1505 14.776 87.6225 14.608 86.9505 14.608C86.3105 14.608 85.7425 14.784 85.2465 15.136C84.7665 15.488 84.4145 15.952 84.1905 16.528L81.3105 15.16C81.5665 14.424 81.9745 13.792 82.5345 13.264C83.0945 12.736 83.7665 12.328 84.5505 12.04C85.3345 11.752 86.1905 11.608 87.1185 11.608C88.2225 11.608 89.1985 11.808 90.0465 12.208C90.8945 12.608 91.5505 13.168 92.0145 13.888C92.4945 14.592 92.7345 15.416 92.7345 16.36V25H89.3745V22.888L90.1905 22.744C89.8065 23.32 89.3825 23.8 88.9185 24.184C88.4545 24.552 87.9345 24.824 87.3585 25C86.7825 25.192 86.1425 25.288 85.4385 25.288ZM101.452 25.144C99.8683 25.144 98.6363 24.72 97.7563 23.872C96.8923 23.008 96.4603 21.808 96.4603 20.272V15.016H94.2523V11.896H94.3723C95.0443 11.896 95.5563 11.728 95.9083 11.392C96.2763 11.056 96.4603 10.552 96.4603 9.88V8.92H100.06V11.896H103.132V15.016H100.06V20.032C100.06 20.48 100.14 20.856 100.3 21.16C100.46 21.448 100.708 21.664 101.044 21.808C101.38 21.952 101.796 22.024 102.292 22.024C102.404 22.024 102.532 22.016 102.676 22C102.82 21.984 102.972 21.968 103.132 21.952V25C102.892 25.032 102.62 25.064 102.316 25.096C102.012 25.128 101.724 25.144 101.452 25.144ZM105.242 25V11.896H108.842V25H105.242ZM105.242 10.72V7.12H108.842V10.72H105.242ZM117.98 25.288C116.684 25.288 115.5 24.992 114.428 24.4C113.372 23.808 112.524 23 111.884 21.976C111.26 20.936 110.948 19.76 110.948 18.448C110.948 17.12 111.26 15.944 111.884 14.92C112.524 13.896 113.372 13.088 114.428 12.496C115.5 11.904 116.684 11.608 117.98 11.608C119.276 11.608 120.452 11.904 121.508 12.496C122.564 13.088 123.404 13.896 124.028 14.92C124.668 15.944 124.988 17.12 124.988 18.448C124.988 19.76 124.668 20.936 124.028 21.976C123.404 23 122.564 23.808 121.508 24.4C120.452 24.992 119.276 25.288 117.98 25.288ZM117.98 22.048C118.636 22.048 119.204 21.896 119.684 21.592C120.18 21.288 120.564 20.864 120.836 20.32C121.124 19.776 121.268 19.152 121.268 18.448C121.268 17.744 121.124 17.128 120.836 16.6C120.564 16.056 120.18 15.632 119.684 15.328C119.204 15.008 118.636 14.848 117.98 14.848C117.324 14.848 116.748 15.008 116.252 15.328C115.756 15.632 115.364 16.056 115.076 16.6C114.804 17.128 114.668 17.744 114.668 18.448C114.668 19.152 114.804 19.776 115.076 20.32C115.364 20.864 115.756 21.288 116.252 21.592C116.748 21.896 117.324 22.048 117.98 22.048ZM127.109 25V11.896H130.469V14.488L130.277 13.912C130.581 13.128 131.069 12.552 131.741 12.184C132.429 11.8 133.229 11.608 134.141 11.608C135.133 11.608 135.997 11.816 136.733 12.232C137.485 12.648 138.069 13.232 138.485 13.984C138.901 14.72 139.109 15.584 139.109 16.576V25H135.509V17.344C135.509 16.832 135.405 16.392 135.197 16.024C135.005 15.656 134.725 15.368 134.357 15.16C134.005 14.952 133.589 14.848 133.109 14.848C132.645 14.848 132.229 14.952 131.861 15.16C131.493 15.368 131.205 15.656 130.997 16.024C130.805 16.392 130.709 16.832 130.709 17.344V25H127.109ZM146.612 25.288C145.172 25.288 143.916 24.952 142.844 24.28C141.788 23.592 141.068 22.672 140.684 21.52L143.324 20.272C143.66 20.976 144.116 21.528 144.692 21.928C145.268 22.328 145.908 22.528 146.612 22.528C147.124 22.528 147.516 22.424 147.788 22.216C148.06 22.008 148.196 21.72 148.196 21.352C148.196 21.16 148.148 21 148.052 20.872C147.956 20.728 147.812 20.6 147.62 20.488C147.428 20.376 147.188 20.28 146.9 20.2L144.668 19.576C143.596 19.272 142.772 18.784 142.196 18.112C141.62 17.424 141.332 16.616 141.332 15.688C141.332 14.872 141.54 14.16 141.956 13.552C142.372 12.944 142.956 12.472 143.708 12.136C144.46 11.784 145.324 11.608 146.3 11.608C147.58 11.608 148.7 11.912 149.66 12.52C150.636 13.112 151.324 13.952 151.724 15.04L149.06 16.288C148.868 15.744 148.516 15.312 148.004 14.992C147.508 14.656 146.94 14.488 146.3 14.488C145.836 14.488 145.468 14.584 145.196 14.776C144.94 14.968 144.812 15.232 144.812 15.568C144.812 15.744 144.86 15.904 144.956 16.048C145.052 16.192 145.204 16.32 145.412 16.432C145.636 16.544 145.908 16.648 146.228 16.744L148.316 17.368C149.404 17.688 150.236 18.176 150.812 18.832C151.388 19.472 151.676 20.264 151.676 21.208C151.676 22.024 151.46 22.736 151.028 23.344C150.612 23.952 150.028 24.432 149.276 24.784C148.524 25.12 147.636 25.288 146.612 25.288Z" fill="#1C202B"/>
<g clip-path="url(#clip1_0_303)">
<rect x="164" y="3" width="32" height="25" rx="6" fill="#0A327B"/>
<path d="M179.672 21.192C179.011 21.192 178.381 21.0693 177.784 20.824C177.187 20.568 176.68 20.2107 176.264 19.752C175.848 19.2933 175.571 18.7547 175.432 18.136L177.624 17.4C177.805 17.912 178.072 18.3013 178.424 18.568C178.776 18.824 179.192 18.952 179.672 18.952C180.067 18.952 180.403 18.8773 180.68 18.728C180.968 18.5787 181.192 18.3707 181.352 18.104C181.512 17.8267 181.592 17.5067 181.592 17.144C181.592 16.7813 181.512 16.472 181.352 16.216C181.203 15.9493 180.984 15.7467 180.696 15.608C180.419 15.4587 180.077 15.384 179.672 15.384C179.437 15.384 179.203 15.4107 178.968 15.464C178.733 15.5173 178.52 15.592 178.328 15.688L177.752 14.488L180.808 11.16H176.152V9.08H183.592V11L180.456 14.568L180.536 13.56C181.251 13.56 181.869 13.7093 182.392 14.008C182.925 14.296 183.336 14.7013 183.624 15.224C183.923 15.7467 184.072 16.3547 184.072 17.048C184.072 17.8373 183.88 18.5467 183.496 19.176C183.112 19.8053 182.589 20.3013 181.928 20.664C181.267 21.016 180.515 21.192 179.672 21.192Z" fill="white"/>
</g>
</g>
<defs>
<clipPath id="clip0_0_303">
<rect width="196" height="30" fill="white"/>
</clipPath>
<clipPath id="clip1_0_303">
<rect width="32" height="25" fill="white" transform="translate(164 3)"/>
</clipPath>
</defs>
</svg>
